# xmcd
#
# Track frame offsets:
#	150
#	21685
#	45752
#	64145
#	85315
#	110107
#	130380
#	153347
#	177092
#	201885
#
# Disc length: 3015 seconds
#
# Revision: 1
# Processed by: cddbd v1.5PL3 Copyright (c) Steve Scherf et al.
# Submitted via: CDex 1.50Beta5
#
DISCID=880bc50a
DTITLE=Various Artist - あいたくて…Love songs 〜a piece of my heart〜
DYEAR=1900
DGENRE=
TTITLE0=Funny Funny Face
TTITLE1=BLOOM
TTITLE2=Kiss Me ☆ Darlin'
TTITLE3=漂流花
TTITLE4=MIRROR
TTITLE5=BAKKAじゃない?
TTITLE6=(ハート)しよう
TTITLE7=天使がヤカマシイ
TTITLE8=グレープフルーツ
TTITLE9=あいたくて…
EXTD=
EXTT0=
EXTT1=
EXTT2=
EXTT3=
EXTT4=
EXTT5=
EXTT6=
EXTT7=
EXTT8=
EXTT9=
PLAYORDER=
